<svg width="535" height="542" viewBox="0 0 535 542" fill="none" xmlns="http://www.w3.org/2000/svg">
<path d="M23.7531 129.166C-22.1116 173.884 7.70049 186.496 35.7926 244.401C41.0475 254.72 31.532 330.799 69.9437 360.038C108.355 389.277 116.955 455.781 127.275 495.339C137.594 534.898 359.712 541.375 414.177 541.375C468.641 541.375 455.455 488.057 462.908 421.553C470.361 355.049 519.092 346.45 531.132 281.092C543.171 215.735 523.679 164.711 519.092 129.166C514.506 93.6204 408.444 59.7951 359.712 24.2499C310.981 -11.2953 220.398 4.75739 137.842 0.170918C55.2852 -4.41556 69.6179 84.4474 23.7531 129.166Z" fill="#3F3D56"/>
</svg>
