<svg width="532" height="554" viewBox="0 0 532 554" fill="none" xmlns="http://www.w3.org/2000/svg">
<path d="M181.405 40.087C105.405 17.087 20.9049 94.0869 5.40472 160.587C-15.4447 196.087 28.405 334.587 62.405 345.587C96.4053 356.587 79.8359 453.387 105.405 489.087C131.905 526.087 227.405 570.587 275.405 547.587C310.125 530.95 406.405 510.587 406.405 461.087C406.405 411.587 497.405 371.587 511.405 345.587C525.405 319.587 555.905 120.587 495.905 120.587C461.084 120.587 495.905 55.5869 469.405 17.0871C452.497 -7.47675 313.604 -3.84225 295.405 17.087C275.405 40.0869 226.869 53.8457 181.405 40.087Z" fill="#3F3D56"/>
</svg>
