<svg width="745" height="562" viewBox="0 0 745 562" fill="none" xmlns="http://www.w3.org/2000/svg">
<path d="M1.00001 431.936C4.20001 499.536 104.333 529.769 154 536.436C282 542.436 548.4 555.636 590 560.436C631.6 565.236 710.667 546.436 745 536.436V140.436C732.333 110.936 687.3 43.8361 608.5 11.4361C510 -29.0639 411 49.9361 375 63.9361C339 77.9361 206 25.4361 123.5 11.4361C41 -2.56394 73.5 105.936 77.5 204.436C81.5 302.936 -2.99999 347.436 1.00001 431.936Z" fill="#3F3D56"/>
<g clip-path="url(#clip0_117_2)">
<path d="M584.323 130.436H146V366.078H584.323V130.436Z" fill="#3F3D56"/>
<path d="M229.104 163.658H225.238V169.839H229.104V163.658Z" fill="#00ADB5"/>
<path d="M242.246 162.113H238.38V168.293H242.246V162.113Z" fill="#00ADB5"/>
<path d="M249.203 162.113H245.338V168.293H249.203V162.113Z" fill="#00ADB5"/>
<path d="M249.203 180.655H245.338V186.836H249.203V180.655Z" fill="#00ADB5"/>
<path d="M256.934 171.384H253.068V177.565H256.934V171.384Z" fill="#00ADB5"/>
<path d="M256.934 181.427H253.068V187.608H256.934V181.427Z" fill="#00ADB5"/>
<path d="M249.203 200.742H245.338V206.923H249.203V200.742Z" fill="#00ADB5"/>
<path d="M256.934 210.786H253.068V216.967H256.934V210.786Z" fill="#00ADB5"/>
<path d="M249.203 248.643H245.338V254.824H249.203V248.643Z" fill="#00ADB5"/>
<path d="M242.246 210.786H238.38V216.967H242.246V210.786Z" fill="#00ADB5"/>
<path d="M229.104 173.702H225.238V179.882H229.104V173.702Z" fill="#00ADB5"/>
<path d="M229.104 270.276H225.238V276.457H229.104V270.276Z" fill="#00ADB5"/>
<path d="M229.104 290.364H225.238V296.544H229.104V290.364Z" fill="#00ADB5"/>
<path d="M229.104 300.407H225.238V306.588H229.104V300.407Z" fill="#00ADB5"/>
<path d="M229.104 184.518H223.692V185.29H229.104V184.518Z" fill="#00ADB5"/>
<path d="M249.976 193.789H244.565V194.562H249.976V193.789Z" fill="#00ADB5"/>
<path d="M229.104 233.964H223.692V234.737H229.104V233.964Z" fill="#00ADB5"/>
<path d="M229.104 242.463H223.692V243.235H229.104V242.463Z" fill="#00ADB5"/>
<path d="M249.976 291.909H244.565V292.681H249.976V291.909Z" fill="#00ADB5"/>
<path d="M243.792 310.451H238.38V311.224H243.792V310.451Z" fill="#00ADB5"/>
<path d="M225.238 191.471V193.016H226.784V196.107H225.238V197.652H229.104V191.471H225.238Z" fill="#00ADB5"/>
<path d="M238.381 180.655V182.2H239.926V185.291H238.381V186.835H242.246V180.655H238.381Z" fill="#00ADB5"/>
<path d="M253.069 190.698V192.244H254.615V195.334H253.069V196.879H256.934V190.698H253.069Z" fill="#00ADB5"/>
<path d="M253.069 220.83V222.375H254.615V225.466H253.069V227.011H256.934V220.83H253.069Z" fill="#00ADB5"/>
<path d="M253.069 230.874V232.419H254.615V235.509H253.069V237.054H256.934V230.874H253.069Z" fill="#00ADB5"/>
<path d="M253.069 199.97V201.515H254.615V204.605H253.069V206.151H256.934V199.97H253.069Z" fill="#00ADB5"/>
<path d="M245.338 171.384V172.929H246.884V176.019H245.338V177.565H249.203V171.384H245.338Z" fill="#00ADB5"/>
<path d="M249.203 220.83H245.338V227.011H249.203V220.83Z" fill="#00ADB5"/>
<path d="M249.203 239.372H245.338V245.553H249.203V239.372Z" fill="#00ADB5"/>
<path d="M245.338 230.101V231.646H246.884V234.736H245.338V236.282H249.203V230.101H245.338Z" fill="#00ADB5"/>
<path d="M238.381 190.698V192.244H239.926V195.334H238.381V196.879H242.246V190.698H238.381Z" fill="#00ADB5"/>
<path d="M238.381 200.742V202.288H239.926V205.378H238.381V206.923H242.246V200.742H238.381Z" fill="#00ADB5"/>
<path d="M242.246 230.874H238.38V237.054H242.246V230.874Z" fill="#00ADB5"/>
<path d="M238.381 220.83V222.375H239.926V225.466H238.381V227.011H242.246V220.83H238.381Z" fill="#00ADB5"/>
<path d="M242.246 250.961H238.38V257.142H242.246V250.961Z" fill="#00ADB5"/>
<path d="M238.381 240.917V242.462H239.926V245.553H238.381V247.098H242.246V240.917H238.381Z" fill="#00ADB5"/>
<path d="M242.246 271.049H238.38V277.229H242.246V271.049Z" fill="#00ADB5"/>
<path d="M249.203 269.504H245.338V275.684H249.203V269.504Z" fill="#00ADB5"/>
<path d="M238.381 261.005V262.55H239.926V265.641H238.381V267.186H242.246V261.005H238.381Z" fill="#00ADB5"/>
<path d="M253.069 261.005V262.55H254.615V265.641H253.069V267.186H256.934V261.005H253.069Z" fill="#00ADB5"/>
<path d="M296.36 171.384H292.494V177.565H296.36V171.384Z" fill="#00ADB5"/>
<path d="M296.36 181.427H292.494V187.608H296.36V181.427Z" fill="#00ADB5"/>
<path d="M296.36 210.786H292.494V216.967H296.36V210.786Z" fill="#00ADB5"/>
<path d="M292.494 190.698V192.244H294.041V195.334H292.494V196.879H296.359V190.698H292.494Z" fill="#00ADB5"/>
<path d="M292.494 220.83V222.375H294.041V225.466H292.494V227.011H296.359V220.83H292.494Z" fill="#00ADB5"/>
<path d="M292.494 230.874V232.419H294.041V235.509H292.494V237.054H296.359V230.874H292.494Z" fill="#00ADB5"/>
<path d="M292.494 199.97V201.515H294.041V204.605H292.494V206.151H296.359V199.97H292.494Z" fill="#00ADB5"/>
<path d="M292.494 261.005V262.55H294.041V265.641H292.494V267.186H296.359V261.005H292.494Z" fill="#00ADB5"/>
<path d="M242.246 291.136H238.38V297.317H242.246V291.136Z" fill="#00ADB5"/>
<path d="M249.203 279.547H245.338V285.728H249.203V279.547Z" fill="#00ADB5"/>
<path d="M242.246 317.405H238.38V323.585H242.246V317.405Z" fill="#00ADB5"/>
<path d="M249.203 298.862H245.338V305.043H249.203V298.862Z" fill="#00ADB5"/>
<path d="M238.381 281.093V282.638H239.926V285.728H238.381V287.273H242.246V281.093H238.381Z" fill="#00ADB5"/>
<path d="M238.381 328.221V329.766H239.926V332.856H238.381V334.401H242.246V328.221H238.381Z" fill="#00ADB5"/>
<path d="M284.764 162.113H280.898V168.293H284.764V162.113Z" fill="#00ADB5"/>
<path d="M284.764 210.786H280.898V216.967H284.764V210.786Z" fill="#00ADB5"/>
<path d="M286.31 310.451H280.898V311.224H286.31V310.451Z" fill="#00ADB5"/>
<path d="M280.898 180.655V182.2H282.445V185.291H280.898V186.835H284.764V180.655H280.898Z" fill="#00ADB5"/>
<path d="M280.898 190.698V192.244H282.445V195.334H280.898V196.879H284.764V190.698H280.898Z" fill="#00ADB5"/>
<path d="M280.898 200.742V202.288H282.445V205.378H280.898V206.923H284.764V200.742H280.898Z" fill="#00ADB5"/>
<path d="M284.764 230.874H280.898V237.054H284.764V230.874Z" fill="#00ADB5"/>
<path d="M280.898 220.83V222.375H282.445V225.466H280.898V227.011H284.764V220.83H280.898Z" fill="#00ADB5"/>
<path d="M284.764 250.961H280.898V257.142H284.764V250.961Z" fill="#00ADB5"/>
<path d="M280.898 240.917V242.462H282.445V245.553H280.898V247.098H284.764V240.917H280.898Z" fill="#00ADB5"/>
<path d="M284.764 271.049H280.898V277.229H284.764V271.049Z" fill="#00ADB5"/>
<path d="M280.898 261.005V262.55H282.445V265.641H280.898V267.186H284.764V261.005H280.898Z" fill="#00ADB5"/>
<path d="M284.764 291.136H280.898V297.317H284.764V291.136Z" fill="#00ADB5"/>
<path d="M284.764 317.405H280.898V323.585H284.764V317.405Z" fill="#00ADB5"/>
<path d="M280.898 281.093V282.638H282.445V285.728H280.898V287.273H284.764V281.093H280.898Z" fill="#00ADB5"/>
<path d="M280.898 328.221V329.766H282.445V332.856H280.898V334.401H284.764V328.221H280.898Z" fill="#00ADB5"/>
<path d="M303.317 162.113H299.452V168.293H303.317V162.113Z" fill="#00ADB5"/>
<path d="M303.317 210.786H299.452V216.967H303.317V210.786Z" fill="#00ADB5"/>
<path d="M304.863 310.451H299.452V311.224H304.863V310.451Z" fill="#00ADB5"/>
<path d="M299.452 180.655V182.2H300.998V185.291H299.452V186.835H303.317V180.655H299.452Z" fill="#00ADB5"/>
<path d="M299.452 190.698V192.244H300.998V195.334H299.452V196.879H303.317V190.698H299.452Z" fill="#00ADB5"/>
<path d="M299.452 200.742V202.288H300.998V205.378H299.452V206.923H303.317V200.742H299.452Z" fill="#00ADB5"/>
<path d="M303.317 230.874H299.452V237.054H303.317V230.874Z" fill="#00ADB5"/>
<path d="M299.452 220.83V222.375H300.998V225.466H299.452V227.011H303.317V220.83H299.452Z" fill="#00ADB5"/>
<path d="M303.317 250.961H299.452V257.142H303.317V250.961Z" fill="#00ADB5"/>
<path d="M299.452 240.917V242.462H300.998V245.553H299.452V247.098H303.317V240.917H299.452Z" fill="#00ADB5"/>
<path d="M303.317 271.049H299.452V277.229H303.317V271.049Z" fill="#00ADB5"/>
<path d="M299.452 261.005V262.55H300.998V265.641H299.452V267.186H303.317V261.005H299.452Z" fill="#00ADB5"/>
<path d="M303.317 291.136H299.452V297.317H303.317V291.136Z" fill="#00ADB5"/>
<path d="M303.317 317.405H299.452V323.585H303.317V317.405Z" fill="#00ADB5"/>
<path d="M299.452 281.093V282.638H300.998V285.728H299.452V287.273H303.317V281.093H299.452Z" fill="#00ADB5"/>
<path d="M299.452 328.221V329.766H300.998V332.856H299.452V334.401H303.317V328.221H299.452Z" fill="#00ADB5"/>
<path d="M245.338 317.405V318.95H246.884V322.04H245.338V323.585H249.203V317.405H245.338Z" fill="#00ADB5"/>
<path d="M245.338 327.449V328.994H246.884V332.084H245.338V333.629H249.203V327.449H245.338Z" fill="#00ADB5"/>
<path d="M225.238 210.786V212.331H226.784V215.422H225.238V216.967H229.104V210.786H225.238Z" fill="#00ADB5"/>
<path d="M225.238 250.189V251.734H226.784V254.824H225.238V256.369H229.104V250.189H225.238Z" fill="#00ADB5"/>
<path d="M225.238 260.232V261.778H226.784V264.868H225.238V266.413H229.104V260.232H225.238Z" fill="#00ADB5"/>
<path d="M225.238 280.32V281.865H226.784V284.955H225.238V286.5H229.104V280.32H225.238Z" fill="#00ADB5"/>
<path d="M225.238 308.906V310.451H226.784V313.542H225.238V315.087H229.104V308.906H225.238Z" fill="#00ADB5"/>
<path d="M225.238 317.405V318.95H226.784V322.04H225.238V323.585H229.104V317.405H225.238Z" fill="#00ADB5"/>
<path d="M269.303 163.658H265.437V169.839H269.303V163.658Z" fill="#00ADB5"/>
<path d="M269.303 173.702H265.437V179.882H269.303V173.702Z" fill="#00ADB5"/>
<path d="M269.303 184.518H263.891V185.29H269.303V184.518Z" fill="#00ADB5"/>
<path d="M269.303 233.964H263.891V234.737H269.303V233.964Z" fill="#00ADB5"/>
<path d="M269.303 242.463H263.891V243.235H269.303V242.463Z" fill="#00ADB5"/>
<path d="M265.437 191.471V193.016H266.983V196.107H265.437V197.652H269.303V191.471H265.437Z" fill="#00ADB5"/>
<path d="M265.437 210.786V212.331H266.983V215.422H265.437V216.967H269.303V210.786H265.437Z" fill="#00ADB5"/>
<path d="M265.437 250.189V251.734H266.983V254.824H265.437V256.369H269.303V250.189H265.437Z" fill="#00ADB5"/>
<path d="M313.367 230.874H309.502V237.054H313.367V230.874Z" fill="#00ADB5"/>
<path d="M313.367 240.917H309.502V247.098H313.367V240.917Z" fill="#00ADB5"/>
<path d="M313.367 251.734H307.955V252.506H313.367V251.734Z" fill="#00ADB5"/>
<path d="M313.367 301.18H307.955V301.953H313.367V301.18Z" fill="#00ADB5"/>
<path d="M313.367 309.679H307.955V310.451H313.367V309.679Z" fill="#00ADB5"/>
<path d="M309.502 258.687V260.232H311.048V263.323H309.502V264.868H313.367V258.687H309.502Z" fill="#00ADB5"/>
<path d="M309.502 278.002V279.548H311.048V282.637H309.502V284.183H313.367V278.002H309.502Z" fill="#00ADB5"/>
<path d="M309.502 317.405V318.95H311.048V322.04H309.502V323.585H313.367V317.405H309.502Z" fill="#00ADB5"/>
<path d="M325.736 163.658H321.87V169.839H325.736V163.658Z" fill="#00ADB5"/>
<path d="M338.878 162.113H335.012V168.293H338.878V162.113Z" fill="#00ADB5"/>
<path d="M345.835 162.113H341.97V168.293H345.835V162.113Z" fill="#00ADB5"/>
<path d="M345.835 180.655H341.97V186.836H345.835V180.655Z" fill="#00ADB5"/>
<path d="M353.566 171.384H349.701V177.565H353.566V171.384Z" fill="#00ADB5"/>
<path d="M353.566 181.427H349.701V187.608H353.566V181.427Z" fill="#00ADB5"/>
<path d="M345.835 200.742H341.97V206.923H345.835V200.742Z" fill="#00ADB5"/>
<path d="M353.566 210.786H349.701V216.967H353.566V210.786Z" fill="#00ADB5"/>
<path d="M345.835 248.643H341.97V254.824H345.835V248.643Z" fill="#00ADB5"/>
<path d="M338.878 210.786H335.012V216.967H338.878V210.786Z" fill="#00ADB5"/>
<path d="M325.736 173.702H321.87V179.882H325.736V173.702Z" fill="#00ADB5"/>
<path d="M325.736 270.276H321.87V276.457H325.736V270.276Z" fill="#00ADB5"/>
<path d="M325.736 290.364H321.87V296.544H325.736V290.364Z" fill="#00ADB5"/>
<path d="M325.736 300.407H321.87V306.588H325.736V300.407Z" fill="#00ADB5"/>
<path d="M325.736 184.518H320.324V185.29H325.736V184.518Z" fill="#00ADB5"/>
<path d="M346.608 193.789H341.197V194.562H346.608V193.789Z" fill="#00ADB5"/>
<path d="M325.736 233.964H320.324V234.737H325.736V233.964Z" fill="#00ADB5"/>
<path d="M325.736 242.463H320.324V243.235H325.736V242.463Z" fill="#00ADB5"/>
<path d="M346.608 291.909H341.197V292.681H346.608V291.909Z" fill="#00ADB5"/>
<path d="M340.424 310.451H335.012V311.224H340.424V310.451Z" fill="#00ADB5"/>
<path d="M321.87 191.471V193.016H323.417V196.107H321.87V197.652H325.736V191.471H321.87Z" fill="#00ADB5"/>
<path d="M335.013 180.655V182.2H336.558V185.291H335.013V186.835H338.878V180.655H335.013Z" fill="#00ADB5"/>
<path d="M349.701 190.698V192.244H351.247V195.334H349.701V196.879H353.566V190.698H349.701Z" fill="#00ADB5"/>
<path d="M349.701 220.83V222.375H351.247V225.466H349.701V227.011H353.566V220.83H349.701Z" fill="#00ADB5"/>
<path d="M349.701 230.874V232.419H351.247V235.509H349.701V237.054H353.566V230.874H349.701Z" fill="#00ADB5"/>
<path d="M349.701 199.97V201.515H351.247V204.605H349.701V206.151H353.566V199.97H349.701Z" fill="#00ADB5"/>
<path d="M341.97 171.384V172.929H343.516V176.019H341.97V177.565H345.835V171.384H341.97Z" fill="#00ADB5"/>
<path d="M345.835 220.83H341.97V227.011H345.835V220.83Z" fill="#00ADB5"/>
<path d="M345.835 239.372H341.97V245.553H345.835V239.372Z" fill="#00ADB5"/>
<path d="M341.97 230.101V231.646H343.516V234.736H341.97V236.282H345.835V230.101H341.97Z" fill="#00ADB5"/>
<path d="M335.013 190.698V192.244H336.558V195.334H335.013V196.879H338.878V190.698H335.013Z" fill="#00ADB5"/>
<path d="M335.013 200.742V202.288H336.558V205.378H335.013V206.923H338.878V200.742H335.013Z" fill="#00ADB5"/>
<path d="M338.878 230.874H335.012V237.054H338.878V230.874Z" fill="#00ADB5"/>
<path d="M335.013 220.83V222.375H336.558V225.466H335.013V227.011H338.878V220.83H335.013Z" fill="#00ADB5"/>
<path d="M338.878 250.961H335.012V257.142H338.878V250.961Z" fill="#00ADB5"/>
<path d="M335.013 240.917V242.462H336.558V245.553H335.013V247.098H338.878V240.917H335.013Z" fill="#00ADB5"/>
<path d="M338.878 271.049H335.012V277.229H338.878V271.049Z" fill="#00ADB5"/>
<path d="M345.835 269.504H341.97V275.684H345.835V269.504Z" fill="#00ADB5"/>
<path d="M335.013 261.005V262.55H336.558V265.641H335.013V267.186H338.878V261.005H335.013Z" fill="#00ADB5"/>
<path d="M349.701 261.005V262.55H351.247V265.641H349.701V267.186H353.566V261.005H349.701Z" fill="#00ADB5"/>
<path d="M392.992 171.384H389.126V177.565H392.992V171.384Z" fill="#00ADB5"/>
<path d="M392.992 181.427H389.126V187.608H392.992V181.427Z" fill="#00ADB5"/>
<path d="M392.992 210.786H389.126V216.967H392.992V210.786Z" fill="#00ADB5"/>
<path d="M389.127 190.698V192.244H390.673V195.334H389.127V196.879H392.992V190.698H389.127Z" fill="#00ADB5"/>
<path d="M389.127 220.83V222.375H390.673V225.466H389.127V227.011H392.992V220.83H389.127Z" fill="#00ADB5"/>
<path d="M389.127 230.874V232.419H390.673V235.509H389.127V237.054H392.992V230.874H389.127Z" fill="#00ADB5"/>
<path d="M389.127 199.97V201.515H390.673V204.605H389.127V206.151H392.992V199.97H389.127Z" fill="#00ADB5"/>
<path d="M389.127 261.005V262.55H390.673V265.641H389.127V267.186H392.992V261.005H389.127Z" fill="#00ADB5"/>
<path d="M338.878 291.136H335.012V297.317H338.878V291.136Z" fill="#00ADB5"/>
<path d="M345.835 279.547H341.97V285.728H345.835V279.547Z" fill="#00ADB5"/>
<path d="M338.878 317.405H335.012V323.585H338.878V317.405Z" fill="#00ADB5"/>
<path d="M345.835 298.862H341.97V305.043H345.835V298.862Z" fill="#00ADB5"/>
<path d="M335.013 281.093V282.638H336.558V285.728H335.013V287.273H338.878V281.093H335.013Z" fill="#00ADB5"/>
<path d="M335.013 328.221V329.766H336.558V332.856H335.013V334.401H338.878V328.221H335.013Z" fill="#00ADB5"/>
<path d="M381.396 162.113H377.531V168.293H381.396V162.113Z" fill="#00ADB5"/>
<path d="M381.396 210.786H377.531V216.967H381.396V210.786Z" fill="#00ADB5"/>
<path d="M382.942 310.451H377.531V311.224H382.942V310.451Z" fill="#00ADB5"/>
<path d="M377.53 180.655V182.2H379.077V185.291H377.53V186.835H381.396V180.655H377.53Z" fill="#00ADB5"/>
<path d="M377.53 190.698V192.244H379.077V195.334H377.53V196.879H381.396V190.698H377.53Z" fill="#00ADB5"/>
<path d="M377.53 200.742V202.288H379.077V205.378H377.53V206.923H381.396V200.742H377.53Z" fill="#00ADB5"/>
<path d="M381.396 230.874H377.531V237.054H381.396V230.874Z" fill="#00ADB5"/>
<path d="M377.53 220.83V222.375H379.077V225.466H377.53V227.011H381.396V220.83H377.53Z" fill="#00ADB5"/>
<path d="M381.396 250.961H377.531V257.142H381.396V250.961Z" fill="#00ADB5"/>
<path d="M377.53 240.917V242.462H379.077V245.553H377.53V247.098H381.396V240.917H377.53Z" fill="#00ADB5"/>
<path d="M381.396 271.049H377.531V277.229H381.396V271.049Z" fill="#00ADB5"/>
<path d="M377.53 261.005V262.55H379.077V265.641H377.53V267.186H381.396V261.005H377.53Z" fill="#00ADB5"/>
<path d="M381.396 291.136H377.531V297.317H381.396V291.136Z" fill="#00ADB5"/>
<path d="M381.396 317.405H377.531V323.585H381.396V317.405Z" fill="#00ADB5"/>
<path d="M377.53 281.093V282.638H379.077V285.728H377.53V287.273H381.396V281.093H377.53Z" fill="#00ADB5"/>
<path d="M377.53 328.221V329.766H379.077V332.856H377.53V334.401H381.396V328.221H377.53Z" fill="#00ADB5"/>
<path d="M399.949 162.113H396.084V168.293H399.949V162.113Z" fill="#00ADB5"/>
<path d="M399.949 210.786H396.084V216.967H399.949V210.786Z" fill="#00ADB5"/>
<path d="M401.495 310.451H396.084V311.224H401.495V310.451Z" fill="#00ADB5"/>
<path d="M396.084 180.655V182.2H397.63V185.291H396.084V186.835H399.949V180.655H396.084Z" fill="#00ADB5"/>
<path d="M396.084 190.698V192.244H397.63V195.334H396.084V196.879H399.949V190.698H396.084Z" fill="#00ADB5"/>
<path d="M396.084 200.742V202.288H397.63V205.378H396.084V206.923H399.949V200.742H396.084Z" fill="#00ADB5"/>
<path d="M399.949 230.874H396.084V237.054H399.949V230.874Z" fill="#00ADB5"/>
<path d="M396.084 220.83V222.375H397.63V225.466H396.084V227.011H399.949V220.83H396.084Z" fill="#00ADB5"/>
<path d="M399.949 250.961H396.084V257.142H399.949V250.961Z" fill="#00ADB5"/>
<path d="M396.084 240.917V242.462H397.63V245.553H396.084V247.098H399.949V240.917H396.084Z" fill="#00ADB5"/>
<path d="M399.949 271.049H396.084V277.229H399.949V271.049Z" fill="#00ADB5"/>
<path d="M396.084 261.005V262.55H397.63V265.641H396.084V267.186H399.949V261.005H396.084Z" fill="#00ADB5"/>
<path d="M399.949 291.136H396.084V297.317H399.949V291.136Z" fill="#00ADB5"/>
<path d="M399.949 317.405H396.084V323.585H399.949V317.405Z" fill="#00ADB5"/>
<path d="M396.084 281.093V282.638H397.63V285.728H396.084V287.273H399.949V281.093H396.084Z" fill="#00ADB5"/>
<path d="M396.084 328.221V329.766H397.63V332.856H396.084V334.401H399.949V328.221H396.084Z" fill="#00ADB5"/>
<path d="M341.97 317.405V318.95H343.516V322.04H341.97V323.585H345.835V317.405H341.97Z" fill="#00ADB5"/>
<path d="M341.97 327.449V328.994H343.516V332.084H341.97V333.629H345.835V327.449H341.97Z" fill="#00ADB5"/>
<path d="M321.87 210.786V212.331H323.417V215.422H321.87V216.967H325.736V210.786H321.87Z" fill="#00ADB5"/>
<path d="M321.87 250.189V251.734H323.417V254.824H321.87V256.369H325.736V250.189H321.87Z" fill="#00ADB5"/>
<path d="M321.87 260.232V261.778H323.417V264.868H321.87V266.413H325.736V260.232H321.87Z" fill="#00ADB5"/>
<path d="M321.87 280.32V281.865H323.417V284.955H321.87V286.5H325.736V280.32H321.87Z" fill="#00ADB5"/>
<path d="M321.87 308.906V310.451H323.417V313.542H321.87V315.087H325.736V308.906H321.87Z" fill="#00ADB5"/>
<path d="M321.87 317.405V318.95H323.417V322.04H321.87V323.585H325.736V317.405H321.87Z" fill="#00ADB5"/>
<path d="M365.935 163.658H362.069V169.839H365.935V163.658Z" fill="#00ADB5"/>
<path d="M365.935 173.702H362.069V179.882H365.935V173.702Z" fill="#00ADB5"/>
<path d="M365.935 184.518H360.523V185.29H365.935V184.518Z" fill="#00ADB5"/>
<path d="M365.935 233.964H360.523V234.737H365.935V233.964Z" fill="#00ADB5"/>
<path d="M365.935 242.463H360.523V243.235H365.935V242.463Z" fill="#00ADB5"/>
<path d="M362.069 191.471V193.016H363.616V196.107H362.069V197.652H365.935V191.471H362.069Z" fill="#00ADB5"/>
<path d="M362.069 210.786V212.331H363.616V215.422H362.069V216.967H365.935V210.786H362.069Z" fill="#00ADB5"/>
<path d="M362.069 250.189V251.734H363.616V254.824H362.069V256.369H365.935V250.189H362.069Z" fill="#00ADB5"/>
<path d="M409.999 230.874H406.134V237.054H409.999V230.874Z" fill="#00ADB5"/>
<path d="M409.999 240.917H406.134V247.098H409.999V240.917Z" fill="#00ADB5"/>
<path d="M409.999 251.734H404.588V252.506H409.999V251.734Z" fill="#00ADB5"/>
<path d="M409.999 301.18H404.588V301.953H409.999V301.18Z" fill="#00ADB5"/>
<path d="M409.999 309.679H404.588V310.451H409.999V309.679Z" fill="#00ADB5"/>
<path d="M406.134 258.687V260.232H407.68V263.323H406.134V264.868H409.999V258.687H406.134Z" fill="#00ADB5"/>
<path d="M406.134 278.002V279.548H407.68V282.637H406.134V284.183H409.999V278.002H406.134Z" fill="#00ADB5"/>
<path d="M406.134 317.405V318.95H407.68V322.04H406.134V323.585H409.999V317.405H406.134Z" fill="#00ADB5"/>
<path d="M422.368 163.658H418.503V169.839H422.368V163.658Z" fill="#00ADB5"/>
<path d="M435.51 162.113H431.645V168.293H435.51V162.113Z" fill="#00ADB5"/>
<path d="M442.467 162.113H438.602V168.293H442.467V162.113Z" fill="#00ADB5"/>
<path d="M442.467 180.655H438.602V186.836H442.467V180.655Z" fill="#00ADB5"/>
<path d="M450.198 171.384H446.333V177.565H450.198V171.384Z" fill="#00ADB5"/>
<path d="M450.198 181.427H446.333V187.608H450.198V181.427Z" fill="#00ADB5"/>
<path d="M442.467 200.742H438.602V206.923H442.467V200.742Z" fill="#00ADB5"/>
<path d="M450.198 210.786H446.333V216.967H450.198V210.786Z" fill="#00ADB5"/>
<path d="M442.467 248.643H438.602V254.824H442.467V248.643Z" fill="#00ADB5"/>
<path d="M435.51 210.786H431.645V216.967H435.51V210.786Z" fill="#00ADB5"/>
<path d="M422.368 173.702H418.503V179.882H422.368V173.702Z" fill="#00ADB5"/>
<path d="M422.368 270.276H418.503V276.457H422.368V270.276Z" fill="#00ADB5"/>
<path d="M422.368 290.364H418.503V296.544H422.368V290.364Z" fill="#00ADB5"/>
<path d="M422.368 300.407H418.503V306.588H422.368V300.407Z" fill="#00ADB5"/>
<path d="M422.368 184.518H416.956V185.29H422.368V184.518Z" fill="#00ADB5"/>
<path d="M443.24 193.789H437.829V194.562H443.24V193.789Z" fill="#00ADB5"/>
<path d="M422.368 233.964H416.956V234.737H422.368V233.964Z" fill="#00ADB5"/>
<path d="M422.368 242.463H416.956V243.235H422.368V242.463Z" fill="#00ADB5"/>
<path d="M443.24 291.909H437.829V292.681H443.24V291.909Z" fill="#00ADB5"/>
<path d="M437.056 310.451H431.645V311.224H437.056V310.451Z" fill="#00ADB5"/>
<path d="M418.502 191.471V193.016H420.049V196.107H418.502V197.652H422.368V191.471H418.502Z" fill="#00ADB5"/>
<path d="M431.645 180.655V182.2H433.19V185.291H431.645V186.835H435.51V180.655H431.645Z" fill="#00ADB5"/>
<path d="M446.333 190.698V192.244H447.879V195.334H446.333V196.879H450.198V190.698H446.333Z" fill="#00ADB5"/>
<path d="M446.333 220.83V222.375H447.879V225.466H446.333V227.011H450.198V220.83H446.333Z" fill="#00ADB5"/>
<path d="M446.333 230.874V232.419H447.879V235.509H446.333V237.054H450.198V230.874H446.333Z" fill="#00ADB5"/>
<path d="M446.333 199.97V201.515H447.879V204.605H446.333V206.151H450.198V199.97H446.333Z" fill="#00ADB5"/>
<path d="M438.602 171.384V172.929H440.148V176.019H438.602V177.565H442.467V171.384H438.602Z" fill="#00ADB5"/>
<path d="M442.467 220.83H438.602V227.011H442.467V220.83Z" fill="#00ADB5"/>
<path d="M442.467 239.372H438.602V245.553H442.467V239.372Z" fill="#00ADB5"/>
<path d="M438.602 230.101V231.646H440.148V234.736H438.602V236.282H442.467V230.101H438.602Z" fill="#00ADB5"/>
<path d="M431.645 190.698V192.244H433.19V195.334H431.645V196.879H435.51V190.698H431.645Z" fill="#00ADB5"/>
<path d="M431.645 200.742V202.288H433.19V205.378H431.645V206.923H435.51V200.742H431.645Z" fill="#00ADB5"/>
<path d="M435.51 230.874H431.645V237.054H435.51V230.874Z" fill="#00ADB5"/>
<path d="M431.645 220.83V222.375H433.19V225.466H431.645V227.011H435.51V220.83H431.645Z" fill="#00ADB5"/>
<path d="M435.51 250.961H431.645V257.142H435.51V250.961Z" fill="#00ADB5"/>
<path d="M431.645 240.917V242.462H433.19V245.553H431.645V247.098H435.51V240.917H431.645Z" fill="#00ADB5"/>
<path d="M435.51 271.049H431.645V277.229H435.51V271.049Z" fill="#00ADB5"/>
<path d="M442.467 269.504H438.602V275.684H442.467V269.504Z" fill="#00ADB5"/>
<path d="M431.645 261.005V262.55H433.19V265.641H431.645V267.186H435.51V261.005H431.645Z" fill="#00ADB5"/>
<path d="M446.333 261.005V262.55H447.879V265.641H446.333V267.186H450.198V261.005H446.333Z" fill="#00ADB5"/>
<path d="M489.624 171.384H485.759V177.565H489.624V171.384Z" fill="#00ADB5"/>
<path d="M489.624 181.427H485.759V187.608H489.624V181.427Z" fill="#00ADB5"/>
<path d="M489.624 210.786H485.759V216.967H489.624V210.786Z" fill="#00ADB5"/>
<path d="M485.759 190.698V192.244H487.305V195.334H485.759V196.879H489.624V190.698H485.759Z" fill="#00ADB5"/>
<path d="M485.759 220.83V222.375H487.305V225.466H485.759V227.011H489.624V220.83H485.759Z" fill="#00ADB5"/>
<path d="M485.759 230.874V232.419H487.305V235.509H485.759V237.054H489.624V230.874H485.759Z" fill="#00ADB5"/>
<path d="M485.759 199.97V201.515H487.305V204.605H485.759V206.151H489.624V199.97H485.759Z" fill="#00ADB5"/>
<path d="M485.759 261.005V262.55H487.305V265.641H485.759V267.186H489.624V261.005H485.759Z" fill="#00ADB5"/>
<path d="M435.51 291.136H431.645V297.317H435.51V291.136Z" fill="#00ADB5"/>
<path d="M442.467 279.547H438.602V285.728H442.467V279.547Z" fill="#00ADB5"/>
<path d="M435.51 317.405H431.645V323.585H435.51V317.405Z" fill="#00ADB5"/>
<path d="M442.467 298.862H438.602V305.043H442.467V298.862Z" fill="#00ADB5"/>
<path d="M431.645 281.093V282.638H433.19V285.728H431.645V287.273H435.51V281.093H431.645Z" fill="#00ADB5"/>
<path d="M431.645 328.221V329.766H433.19V332.856H431.645V334.401H435.51V328.221H431.645Z" fill="#00ADB5"/>
<path d="M478.028 162.113H474.163V168.293H478.028V162.113Z" fill="#00ADB5"/>
<path d="M478.028 210.786H474.163V216.967H478.028V210.786Z" fill="#00ADB5"/>
<path d="M479.574 310.451H474.163V311.224H479.574V310.451Z" fill="#00ADB5"/>
<path d="M474.163 180.655V182.2H475.709V185.291H474.163V186.835H478.028V180.655H474.163Z" fill="#00ADB5"/>
<path d="M474.163 190.698V192.244H475.709V195.334H474.163V196.879H478.028V190.698H474.163Z" fill="#00ADB5"/>
<path d="M474.163 200.742V202.288H475.709V205.378H474.163V206.923H478.028V200.742H474.163Z" fill="#00ADB5"/>
<path d="M478.028 230.874H474.163V237.054H478.028V230.874Z" fill="#00ADB5"/>
<path d="M474.163 220.83V222.375H475.709V225.466H474.163V227.011H478.028V220.83H474.163Z" fill="#00ADB5"/>
<path d="M478.028 250.961H474.163V257.142H478.028V250.961Z" fill="#00ADB5"/>
<path d="M474.163 240.917V242.462H475.709V245.553H474.163V247.098H478.028V240.917H474.163Z" fill="#00ADB5"/>
<path d="M478.028 271.049H474.163V277.229H478.028V271.049Z" fill="#00ADB5"/>
<path d="M474.163 261.005V262.55H475.709V265.641H474.163V267.186H478.028V261.005H474.163Z" fill="#00ADB5"/>
<path d="M478.028 291.136H474.163V297.317H478.028V291.136Z" fill="#00ADB5"/>
<path d="M478.028 317.405H474.163V323.585H478.028V317.405Z" fill="#00ADB5"/>
<path d="M474.163 281.093V282.638H475.709V285.728H474.163V287.273H478.028V281.093H474.163Z" fill="#00ADB5"/>
<path d="M474.163 328.221V329.766H475.709V332.856H474.163V334.401H478.028V328.221H474.163Z" fill="#00ADB5"/>
<path d="M496.581 162.113H492.716V168.293H496.581V162.113Z" fill="#00ADB5"/>
<path d="M496.581 210.786H492.716V216.967H496.581V210.786Z" fill="#00ADB5"/>
<path d="M498.127 310.451H492.716V311.224H498.127V310.451Z" fill="#00ADB5"/>
<path d="M492.716 180.655V182.2H494.262V185.291H492.716V186.835H496.582V180.655H492.716Z" fill="#00ADB5"/>
<path d="M492.716 190.698V192.244H494.262V195.334H492.716V196.879H496.582V190.698H492.716Z" fill="#00ADB5"/>
<path d="M492.716 200.742V202.288H494.262V205.378H492.716V206.923H496.582V200.742H492.716Z" fill="#00ADB5"/>
<path d="M496.581 230.874H492.716V237.054H496.581V230.874Z" fill="#00ADB5"/>
<path d="M492.716 220.83V222.375H494.262V225.466H492.716V227.011H496.582V220.83H492.716Z" fill="#00ADB5"/>
<path d="M496.581 250.961H492.716V257.142H496.581V250.961Z" fill="#00ADB5"/>
<path d="M492.716 240.917V242.462H494.262V245.553H492.716V247.098H496.582V240.917H492.716Z" fill="#00ADB5"/>
<path d="M496.581 271.049H492.716V277.229H496.581V271.049Z" fill="#00ADB5"/>
<path d="M492.716 261.005V262.55H494.262V265.641H492.716V267.186H496.582V261.005H492.716Z" fill="#00ADB5"/>
<path d="M496.581 291.136H492.716V297.317H496.581V291.136Z" fill="#00ADB5"/>
<path d="M496.581 317.405H492.716V323.585H496.581V317.405Z" fill="#00ADB5"/>
<path d="M492.716 281.093V282.638H494.262V285.728H492.716V287.273H496.582V281.093H492.716Z" fill="#00ADB5"/>
<path d="M492.716 328.221V329.766H494.262V332.856H492.716V334.401H496.582V328.221H492.716Z" fill="#00ADB5"/>
<path d="M438.602 317.405V318.95H440.148V322.04H438.602V323.585H442.467V317.405H438.602Z" fill="#00ADB5"/>
<path d="M438.602 327.449V328.994H440.148V332.084H438.602V333.629H442.467V327.449H438.602Z" fill="#00ADB5"/>
<path d="M418.502 210.786V212.331H420.049V215.422H418.502V216.967H422.368V210.786H418.502Z" fill="#00ADB5"/>
<path d="M418.502 250.189V251.734H420.049V254.824H418.502V256.369H422.368V250.189H418.502Z" fill="#00ADB5"/>
<path d="M418.502 260.232V261.778H420.049V264.868H418.502V266.413H422.368V260.232H418.502Z" fill="#00ADB5"/>
<path d="M418.502 280.32V281.865H420.049V284.955H418.502V286.5H422.368V280.32H418.502Z" fill="#00ADB5"/>
<path d="M418.502 308.906V310.451H420.049V313.542H418.502V315.087H422.368V308.906H418.502Z" fill="#00ADB5"/>
<path d="M418.502 317.405V318.95H420.049V322.04H418.502V323.585H422.368V317.405H418.502Z" fill="#00ADB5"/>
<path d="M462.567 163.658H458.702V169.839H462.567V163.658Z" fill="#00ADB5"/>
<path d="M462.567 173.702H458.702V179.882H462.567V173.702Z" fill="#00ADB5"/>
<path d="M462.567 184.518H457.155V185.29H462.567V184.518Z" fill="#00ADB5"/>
<path d="M462.567 233.964H457.155V234.737H462.567V233.964Z" fill="#00ADB5"/>
<path d="M462.567 242.463H457.155V243.235H462.567V242.463Z" fill="#00ADB5"/>
<path d="M458.701 191.471V193.016H460.248V196.107H458.701V197.652H462.567V191.471H458.701Z" fill="#00ADB5"/>
<path d="M458.701 210.786V212.331H460.248V215.422H458.701V216.967H462.567V210.786H458.701Z" fill="#00ADB5"/>
<path d="M458.701 250.189V251.734H460.248V254.824H458.701V256.369H462.567V250.189H458.701Z" fill="#00ADB5"/>
<path d="M506.631 230.874H502.766V237.054H506.631V230.874Z" fill="#00ADB5"/>
<path d="M506.631 240.917H502.766V247.098H506.631V240.917Z" fill="#00ADB5"/>
<path d="M506.631 251.734H501.22V252.506H506.631V251.734Z" fill="#00ADB5"/>
<path d="M506.631 301.18H501.22V301.953H506.631V301.18Z" fill="#00ADB5"/>
<path d="M506.631 309.679H501.22V310.451H506.631V309.679Z" fill="#00ADB5"/>
<path d="M502.766 258.687V260.232H504.312V263.323H502.766V264.868H506.631V258.687H502.766Z" fill="#00ADB5"/>
<path d="M502.766 278.002V279.548H504.312V282.637H502.766V284.183H506.631V278.002H502.766Z" fill="#00ADB5"/>
<path d="M502.766 317.405V318.95H504.312V322.04H502.766V323.585H506.631V317.405H502.766Z" fill="#00ADB5"/>
<path d="M668 484.157H253.419V485.436H668V484.157Z" fill="#2F2E41"/>
<path d="M339.113 332.866V358.899L342.619 374.92C342.619 374.92 342.118 384.933 342.619 387.936C343.12 390.94 342.118 395.947 339.113 395.947C336.107 395.947 334.604 403.456 334.604 403.456C334.604 403.456 333.602 406.46 331.098 406.961C328.593 407.462 328.593 406.961 328.593 406.961L326.589 411.967L285.011 439.503L293.026 459.528C293.026 459.528 305.55 455.023 306.552 453.521C307.553 452.019 316.069 455.523 316.069 452.019C316.069 448.514 317.572 439.503 320.578 439.002C323.584 438.501 348.631 426.987 348.631 426.987C348.631 426.987 361.655 412.468 362.657 406.961C363.659 401.454 368.167 385.934 368.167 385.934L380.691 406.961V449.015L378.687 471.544L400.728 468.54C400.728 468.54 398.725 454.522 400.728 452.519C402.732 450.517 405.738 426.486 403.734 423.482C401.73 420.478 404.736 406.961 403.734 404.958C402.732 402.956 403.233 388.437 400.728 384.432C398.224 380.427 383.195 339.374 383.195 339.374L339.113 332.866Z" fill="#2F2E41"/>
<path d="M381.693 470.542C381.693 470.542 374.179 483.059 379.188 484.56C384.197 486.062 393.715 484.56 394.717 484.56C395.719 484.56 413.753 485.061 413.753 485.061C413.753 485.061 425.775 482.558 425.775 479.053C425.775 475.549 418.261 475.549 415.757 475.048C413.252 474.548 397.723 468.54 397.723 468.54L381.693 470.542Z" fill="#2F2E41"/>
<path d="M287.312 440.067C287.312 440.067 272.833 438.151 273.445 443.342C274.057 448.533 279.22 456.665 279.618 457.584C279.887 458.206 283.051 466.084 285.066 471.104C286.521 474.784 288.709 478.131 291.495 480.943C293.465 482.91 295.611 484.487 297.019 483.877C300.237 482.484 297.25 475.593 296.714 473.097C296.178 470.601 295.522 453.972 295.522 453.972L287.312 440.067Z" fill="#2F2E41"/>
<path d="M387.954 250.009L403.985 212.962C403.985 212.962 402.482 209.457 398.975 209.958C398.975 209.958 394.216 197.692 385.199 197.692C385.199 197.692 371.674 190.183 367.666 197.692C367.666 197.692 359.15 205.202 359.651 212.211C360.152 219.22 360.653 224.226 360.653 224.226C360.653 224.226 352.638 225.228 354.141 229.233C355.644 233.238 356.145 233.238 354.141 234.74L352.137 236.242C352.137 236.242 310.559 273.79 333.602 328.861L335.606 337.372V345.382C335.606 345.382 386.201 345.882 386.201 345.382C386.201 344.881 385.199 341.877 387.203 339.875C389.207 337.872 389.207 334.868 389.207 334.868C389.207 334.868 387.203 324.855 388.205 321.852C389.207 318.848 389.708 305.831 387.704 302.827C385.7 299.823 386.702 275.792 386.702 275.792L391.211 267.282L389.708 262.275L388.205 257.269L387.954 250.009Z" fill="#8985A8"/>
<path opacity="0.1" d="M383.696 350.388C383.696 350.388 377.685 333.867 378.186 330.863C378.687 327.859 377.184 321.852 377.184 321.852L375.18 281.3C375.18 281.3 383.696 245.253 364.661 239.246C364.661 239.246 359.844 241.346 355.897 248.105C351.995 249.843 347.259 254.239 346.126 265.279C344.122 284.804 353.139 334.868 357.648 343.379C362.156 351.89 365.162 357.898 365.162 357.898L369.874 355.805C370.068 356.191 370.171 356.396 370.171 356.396L383.696 350.388Z" fill="black"/>
<path d="M386.452 245.504C387.282 245.504 387.954 244.831 387.954 244.002C387.954 243.172 387.282 242.5 386.452 242.5C385.622 242.5 384.949 243.172 384.949 244.002C384.949 244.831 385.622 245.504 386.452 245.504Z" fill="#F2F2F2"/>
<path d="M386.953 244.002H385.951V267.532H386.953V244.002Z" fill="#3F3D56"/>
<path d="M368.418 352.14L372.425 360.651C372.425 360.651 381.442 357.648 381.442 356.146C381.442 354.644 377.435 348.135 377.435 348.135L368.418 352.14Z" fill="#FFB8B8"/>
<path d="M362.657 239.246C362.657 239.246 351.135 244.252 349.132 263.777C347.128 283.302 356.145 333.366 360.653 341.877C365.162 350.388 368.167 356.396 368.167 356.396L381.693 350.388C381.693 350.388 375.681 333.867 376.182 330.863C376.683 327.859 375.18 321.852 375.18 321.852L373.177 281.3C373.177 281.3 381.693 245.253 362.657 239.246Z" fill="#8985A8"/>
</g>
<defs>
<clipPath id="clip0_117_2">
<rect width="522" height="355" fill="white" transform="translate(146 130.436)"/>
</clipPath>
</defs>
</svg>
